<?xml version="1.0" standalone="no"?>
<!DOCTYPE svg PUBLIC "-//W3C//DTD SVG 20010904//EN"
 "http://www.w3.org/TR/2001/REC-SVG-20010904/DTD/svg10.dtd">
<svg version="1.0" xmlns="http://www.w3.org/2000/svg"
 width="400.000000pt" height="400.000000pt" viewBox="0 0 400.000000 400.000000"
 preserveAspectRatio="xMidYMid meet">
<metadata>
Created by potrace 1.11, written by Peter Selinger 2001-2013
</metadata>
<g transform="translate(0.000000,400.000000) scale(0.100000,-0.100000)"
fill="#000000" stroke="none">
<path d="M2240 3833 c-14 -2 -38 -10 -55 -18 -16 -7 -50 -13 -75 -13 -28 -1
-49 -6 -55 -16 -7 -9 -20 -13 -31 -10 -11 3 -26 -1 -32 -9 -9 -10 -22 -12 -45
-7 -25 5 -38 2 -60 -17 -16 -13 -35 -23 -43 -23 -9 0 -71 -27 -139 -60 -103
-51 -127 -67 -146 -98 -12 -20 -22 -43 -22 -49 0 -7 -4 -13 -9 -13 -5 0 -6 -4
-3 -10 3 -5 0 -7 -9 -4 -8 3 -17 -2 -20 -14 -4 -11 -18 -32 -32 -48 -14 -16
-37 -52 -51 -81 -20 -44 -22 -56 -12 -75 7 -13 17 -26 23 -31 8 -5 6 -11 -6
-20 -10 -8 -15 -23 -13 -38 2 -13 9 -57 16 -98 10 -60 9 -75 -1 -81 -11 -7
-11 -12 -2 -23 13 -15 17 -34 32 -157 5 -41 11 -84 13 -95 3 -11 10 -60 17
-110 11 -81 47 -188 67 -197 5 -1 22 -23 38 -48 17 -25 36 -51 43 -58 6 -7 12
-21 12 -29 0 -9 15 -29 32 -45 29 -26 33 -27 40 -11 3 10 7 32 7 50 1 35 18
53 27 29 4 -10 16 -14 37 -11 59 7 152 -9 152 -25 0 -8 4 -20 8 -27 13 -21 30
-117 28 -161 -1 -24 2 -49 8 -55 10 -12 11 -16 12 -44 0 -16 1 -15 8 2 7 17 9
16 15 -9 5 -20 3 -32 -6 -37 -9 -6 -4 -11 15 -18 15 -6 39 -29 54 -51 16 -22
38 -43 51 -46 12 -3 22 -13 22 -21 0 -11 7 -14 25 -10 14 2 23 2 21 -1 -3 -3
2 -11 12 -19 9 -8 11 -11 3 -7 -10 5 -12 3 -7 -5 6 -9 11 -9 23 0 11 10 16 10
22 0 5 -7 12 -13 17 -14 5 -1 8 -7 8 -13 -1 -7 10 -17 23 -23 19 -9 23 -8 17
1 -6 10 -3 9 9 0 9 -8 21 -11 27 -7 5 3 10 2 10 -2 0 -5 10 -13 22 -18 12 -6
24 -16 26 -24 3 -8 0 -11 -7 -7 -6 4 -11 2 -11 -3 0 -6 4 -11 9 -11 14 0 53
-81 47 -96 -3 -8 -12 -14 -20 -14 -21 0 -30 -33 -12 -46 19 -13 21 -44 3 -44
-16 0 -70 -57 -63 -68 3 -5 -2 -29 -12 -54 -12 -31 -22 -43 -32 -40 -8 3 -5
-4 7 -15 35 -31 132 -57 166 -44 22 9 27 17 27 43 0 55 -16 65 -25 16 l-7 -43
-12 38 c-6 22 -14 35 -18 31 -5 -4 -8 2 -8 14 0 12 4 22 9 22 5 0 12 15 16 32
8 38 73 243 87 273 21 46 45 68 64 60 75 -32 258 -13 295 31 6 8 15 12 19 9 4
-3 24 15 45 40 37 46 48 83 49 162 1 22 5 39 10 35 5 -3 6 2 3 12 -4 10 -7 29
-7 42 0 18 -4 23 -12 18 -10 -6 -10 -4 -2 7 6 8 11 25 12 39 l1 25 -14 -25
-13 -24 -4 24 c-2 14 0 41 4 60 4 19 8 51 8 70 0 26 3 31 10 20 8 -12 10 -10
10 10 0 20 2 22 10 10 10 -15 8 23 -7 120 -4 25 -7 50 -8 55 -1 6 14 27 32 48
18 20 33 48 33 60 0 13 -29 71 -64 130 -47 77 -61 107 -51 111 15 5 75 119 75
141 0 33 -90 216 -103 208 -5 -3 -3 -10 4 -15 9 -6 1 -7 -24 -3 -20 3 -41 4
-46 1 -5 -3 -3 -24 3 -46 8 -33 8 -43 -4 -50 -13 -8 -132 -6 -227 4 -32 3 -49
-1 -68 -16 -14 -11 -25 -16 -25 -13 0 4 -6 3 -12 -2 -7 -6 -26 -13 -42 -17
-25 -6 -27 -9 -15 -21 8 -8 32 -21 54 -29 22 -8 32 -15 22 -15 -21 -1 -59 -22
-70 -38 -4 -7 -15 -13 -22 -13 -19 0 -19 -20 -1 -46 18 -25 76 -32 76 -9 0 9
5 13 10 10 6 -4 8 -10 5 -15 -3 -4 12 -25 33 -46 33 -33 43 -38 86 -38 48 -1
50 0 77 46 16 27 24 50 19 53 -15 9 -12 25 5 25 8 0 24 9 35 20 37 37 92 19
105 -33 4 -15 10 -27 14 -27 4 0 13 -17 20 -37 8 -21 25 -58 40 -83 14 -25 27
-52 29 -60 14 -85 14 -85 -10 -97 -12 -7 -49 -17 -80 -24 -32 -7 -58 -15 -58
-19 0 -4 -20 -6 -44 -5 -38 2 -44 0 -38 -14 3 -9 11 -20 18 -26 18 -15 0 -53
-31 -65 -14 -5 -25 -14 -25 -20 0 -6 -4 -9 -9 -6 -10 7 -51 -101 -51 -135 l0
-23 -16 22 c-14 21 -17 21 -28 7 -10 -13 -14 -11 -30 20 -11 19 -23 35 -28 35
-4 0 -8 6 -8 14 0 7 -7 19 -15 26 -8 7 -15 22 -16 34 0 11 -3 15 -6 8 -2 -6
-9 -10 -14 -6 -5 3 -9 -6 -9 -20 0 -14 -4 -27 -8 -30 -4 -2 -6 12 -4 31 4 30
2 35 -12 30 -9 -4 -16 -1 -17 6 -1 7 -5 1 -9 -13 l-8 -25 -1 25 c-2 36 -18 59
-30 42 -9 -15 -64 -25 -55 -11 3 5 -1 12 -10 15 -8 3 -14 11 -12 17 1 7 1 9
-1 5 -3 -5 -11 -8 -19 -8 -13 0 -18 16 -15 50 1 11 -1 11 -9 -2 -6 -10 -10
-24 -9 -30 4 -36 -3 -40 -21 -10 -23 37 -27 55 -6 27 12 -17 13 -17 18 7 4 19
1 25 -9 21 -8 -3 -13 2 -13 15 0 11 -11 29 -25 40 -14 11 -25 27 -25 36 0 21
-29 33 -40 16 -4 -7 -6 28 -3 76 4 76 18 150 40 203 3 9 1 11 -6 7 -6 -4 -11
0 -11 9 0 9 4 14 9 11 4 -3 6 5 4 18 -6 28 27 104 56 130 12 11 21 24 21 31 0
6 11 17 25 23 26 12 36 35 10 26 -12 -5 -12 -2 1 25 10 19 20 28 27 24 7 -4 6
1 -2 10 -15 18 -26 23 -16 7 3 -5 2 -10 -3 -10 -5 0 -14 10 -21 23 -11 21 -8
5 6 -30 5 -12 3 -14 -7 -8 -7 5 -11 4 -7 -1 3 -5 -2 -18 -10 -29 -15 -19 -15
-19 -8 4 9 30 -12 19 -25 -13 -8 -19 -9 -19 -9 7 -1 15 4 27 9 27 6 0 10 5 10
11 0 6 -7 9 -14 6 -21 -8 -28 21 -16 63 13 47 14 47 -15 20 -25 -24 -36 -13
-12 12 7 7 12 19 11 26 -1 6 -2 17 -3 23 -1 13 -21 2 -21 -12 0 -6 5 -7 12 -3
7 5 8 3 3 -5 -5 -9 -10 -10 -18 -2 -10 10 7 42 21 39 4 -1 21 5 37 14 17 8 41
18 55 21 14 4 51 31 82 62 30 30 64 55 74 55 13 0 15 -3 7 -8 -8 -5 1 -8 22
-8 23 0 30 3 22 9 -8 6 -3 7 13 3 14 -3 38 -6 53 -6 19 0 30 -7 37 -22 5 -13
9 -19 9 -13 1 5 8 -1 17 -13 8 -12 22 -22 31 -22 9 0 13 -6 10 -14 -5 -13 25
-46 43 -46 6 0 10 -7 10 -15 0 -15 39 -58 63 -69 9 -5 9 -8 0 -12 -7 -3 -13
-20 -13 -37 l0 -30 25 23 c14 13 25 34 25 46 0 28 19 42 31 23 7 -12 9 -12 9
0 0 8 6 11 15 7 13 -4 13 -2 5 14 -12 23 -30 35 -30 21 0 -6 -7 -11 -16 -11
-13 0 -14 3 -4 15 10 12 7 19 -19 41 -26 21 -31 32 -29 66 1 23 7 42 15 45 23
9 43 60 43 110 0 52 -29 118 -62 141 -10 7 -15 18 -12 24 4 6 2 8 -4 4 -6 -3
-32 5 -58 19 -26 14 -62 25 -80 25 -18 0 -45 5 -61 11 -15 5 -24 7 -20 3 12
-12 -66 -34 -98 -28 -16 3 -58 17 -92 30 -59 23 -88 26 -143 17z m67 -19 c-3
-3 -12 -4 -19 -1 -8 3 -5 6 6 6 11 1 17 -2 13 -5z m43 2 c0 -2 -7 -7 -16 -10
-8 -3 -12 -2 -9 4 6 10 25 14 25 6z m-97 -13 c-7 -2 -19 -2 -25 0 -7 3 -2 5
12 5 14 0 19 -2 13 -5z m-323 -57 c0 -2 -7 -6 -15 -10 -8 -3 -15 -1 -15 4 0 6
7 10 15 10 8 0 15 -2 15 -4z m-502 -491 c-3 -3 -9 2 -12 12 -6 14 -5 15 5 6 7
-7 10 -15 7 -18z m1155 -301 c31 -11 18 -23 -15 -13 -18 5 -34 9 -36 9 -2 0 0
5 3 11 4 5 12 8 18 5 7 -4 20 -9 30 -12z m32 -74 c-3 -5 -12 -10 -18 -10 -7 0
-6 4 3 10 19 12 23 12 15 0z m-60 -20 c-3 -5 -12 -10 -18 -10 -7 0 -6 4 3 10
19 12 23 12 15 0z m-884 -23 c-6 -8 -8 -17 -4 -21 4 -4 0 -4 -10 0 -17 6 -17
7 0 20 23 17 28 18 14 1z m154 -23 c19 -15 35 -23 35 -20 0 4 6 4 13 -1 6 -4
19 -6 27 -5 10 2 24 -13 37 -36 18 -35 19 -40 4 -51 -9 -6 -10 -9 -3 -6 15 7
15 4 2 -29 -7 -20 -6 -24 6 -19 8 3 14 2 13 -3 -4 -25 3 -44 17 -44 8 0 12 -5
9 -10 -4 -6 -11 -7 -17 -4 -15 9 -27 -15 -22 -45 l4 -26 -15 28 c-9 15 -20 27
-25 27 -16 0 -11 66 5 80 21 17 19 37 -5 50 -16 9 -20 8 -20 -6 0 -16 -2 -16
-20 1 -11 10 -20 26 -20 36 0 34 -22 67 -61 88 -33 19 -44 21 -75 12 -21 -6
-33 -6 -28 -2 29 28 92 21 139 -15z m830 -12 c-2 -2 -20 2 -39 9 -35 13 -36
13 -14 25 18 10 24 8 39 -10 9 -11 16 -23 14 -24z m-848 -29 c39 -43 40 -51
11 -63 -32 -12 -71 -50 -85 -81 -22 -51 12 -127 64 -143 20 -6 19 -3 -8 24
-28 27 -31 36 -26 72 7 49 37 93 63 93 16 0 18 -7 16 -42 -3 -34 0 -42 17 -48
26 -8 34 -35 22 -69 -7 -16 -18 -26 -31 -26 -13 0 -19 -4 -14 -11 4 -7 21 -9
45 -5 22 3 39 4 39 0 0 -15 -35 -64 -46 -64 -7 0 -14 -6 -17 -13 -3 -9 5 -13
27 -14 27 -1 34 4 44 30 15 40 26 28 18 -18 -12 -62 -89 -78 -160 -32 -33 22
-91 85 -91 100 -1 25 -17 57 -27 54 -13 -2 -69 123 -61 136 3 5 18 -17 34 -49
33 -68 33 -68 17 -58 -7 4 -8 3 -4 -5 4 -6 11 -9 16 -6 4 3 13 -2 20 -10 23
-28 28 -15 14 38 -9 33 -12 73 -8 108 5 46 3 57 -10 62 -12 5 -17 -3 -21 -31
-13 -79 -16 -87 -26 -71 -11 18 -12 81 0 112 12 31 68 67 106 67 22 0 38 -10
62 -37z m-206 -85 l-9 -33 -1 32 c-1 17 2 40 6 50 12 30 16 -9 4 -49z m83
-204 c3 -8 2 -12 -4 -9 -6 3 -10 10 -10 16 0 14 7 11 14 -7z m713 -166 c-3 -8
-6 -5 -6 6 -1 11 2 17 5 13 3 -3 4 -12 1 -19z m183 -19 c0 -15 -18 -19 -23 -6
-3 8 1 14 9 14 8 0 14 -4 14 -8z"/>
<path d="M1735 2460 c-3 -5 -13 -6 -23 -3 -14 5 -14 3 3 -14 11 -11 22 -19 24
-17 2 2 10 -4 18 -14 13 -15 13 -15 3 6 -6 12 -15 22 -21 22 -6 0 -8 4 -4 10
4 6 16 5 33 -1 22 -8 25 -8 15 2 -16 16 -41 20 -48 9z"/>
<path d="M2250 3199 c0 -5 5 -7 10 -4 6 3 10 8 10 11 0 2 -4 4 -10 4 -5 0 -10
-5 -10 -11z"/>
<path d="M2820 3180 c0 -5 7 -10 16 -10 8 0 12 5 9 10 -3 6 -10 10 -16 10 -5
0 -9 -4 -9 -10z"/>
<path d="M2865 3150 c-3 -5 -1 -10 4 -10 6 0 11 5 11 10 0 6 -2 10 -4 10 -3 0
-8 -4 -11 -10z"/>
<path d="M2873 2580 c-29 -12 -30 -24 -2 -15 12 4 24 2 28 -3 3 -6 20 -12 36
-14 24 -2 30 1 30 17 0 16 -7 20 -35 22 -19 1 -45 -2 -57 -7z"/>
<path d="M2775 2529 c-4 -6 -5 -13 -2 -16 7 -7 27 6 27 18 0 12 -17 12 -25 -2z"/>
<path d="M2670 2260 c0 -5 5 -10 11 -10 5 0 7 5 4 10 -3 6 -8 10 -11 10 -2 0
-4 -4 -4 -10z"/>
<path d="M2104 1799 c-3 -6 -1 -16 6 -22 10 -9 11 -9 6 1 -4 7 -1 12 8 12 9 0
16 5 16 10 0 13 -27 13 -36 -1z"/>
<path d="M2143 1773 c-20 -7 -15 -23 7 -23 11 0 20 4 20 9 0 13 -12 19 -27 14z"/>
<path d="M2205 1720 c-3 -5 1 -10 10 -10 9 0 13 5 10 10 -3 6 -8 10 -10 10 -2
0 -7 -4 -10 -10z"/>
<path d="M2185 1310 c3 -5 11 -10 16 -10 6 0 7 5 4 10 -3 6 -11 10 -16 10 -6
0 -7 -4 -4 -10z"/>
<path d="M2528 583 c7 -3 16 -2 19 1 4 3 -2 6 -13 5 -11 0 -14 -3 -6 -6z"/>
<path d="M2623 575 c0 -9 4 -11 11 -6 6 5 25 11 41 14 25 3 23 4 -11 6 -30 1
-41 -3 -41 -14z"/>
<path d="M2483 565 c0 -8 4 -12 9 -9 4 3 8 9 8 15 0 5 -4 9 -8 9 -5 0 -9 -7
-9 -15z"/>
<path d="M2670 529 c0 -6 -7 -8 -16 -5 -12 5 -14 1 -9 -17 4 -12 12 -26 18
-32 7 -7 8 -4 4 7 -4 11 2 25 15 38 18 17 19 20 5 20 -9 0 -17 -5 -17 -11z"/>
<path d="M2728 523 c7 -3 16 -2 19 1 4 3 -2 6 -13 5 -11 0 -14 -3 -6 -6z"/>
<path d="M2620 490 c-13 -8 -12 -10 3 -10 9 0 17 5 17 10 0 12 -1 12 -20 0z"/>
<path d="M2450 480 c0 -5 7 -7 15 -4 8 4 15 8 15 10 0 2 -7 4 -15 4 -8 0 -15
-4 -15 -10z"/>
<path d="M2526 476 c3 -9 -3 -20 -15 -28 -27 -16 -27 -28 -1 -21 11 3 17 9 14
14 -3 5 2 9 10 9 9 0 16 -8 16 -18 0 -10 7 -19 15 -19 19 0 19 2 -1 32 -9 13
-13 29 -9 35 3 6 -3 10 -14 10 -14 0 -19 -5 -15 -14z"/>
<path d="M2816 481 c-4 -5 -3 -17 1 -27 5 -14 3 -16 -13 -9 -10 5 -29 9 -41 9
-13 1 -23 4 -23 9 0 4 -4 7 -10 7 -5 0 -10 -7 -10 -15 0 -15 -29 -18 -40 -4
-13 15 -58 18 -63 5 -4 -11 1 -14 21 -12 27 3 42 -8 42 -33 0 -7 -6 -11 -14
-8 -12 5 -26 -11 -26 -28 0 -2 16 -7 36 -11 24 -4 34 -11 30 -20 -3 -8 -1 -14
4 -14 6 0 10 5 10 10 0 6 10 10 23 10 l22 1 -23 12 c-12 7 -19 16 -16 20 4 4
2 7 -4 7 -6 0 -14 -4 -17 -10 -3 -5 -12 -10 -18 -9 -9 0 -9 2 0 6 8 3 11 14 7
27 -5 20 -1 24 32 29 37 6 69 -7 59 -23 -3 -4 2 -10 10 -14 8 -3 17 0 21 6 4
6 14 -3 24 -22 10 -19 25 -35 35 -36 24 -3 32 -14 11 -14 -34 0 -13 -35 24
-40 25 -4 34 -10 32 -22 -2 -12 3 -15 18 -11 11 3 17 9 14 14 -3 5 -1 9 5 9 5
0 12 -4 16 -9 3 -5 18 -8 33 -6 15 2 31 4 35 4 4 1 2 11 -4 23 -11 21 -12 21
-25 4 -12 -17 -13 -17 -20 8 -3 14 -10 26 -16 26 -5 0 -6 5 -2 12 5 7 2 9 -9
5 -9 -3 -18 1 -21 10 -4 9 -13 13 -24 9 -14 -5 -14 -3 2 9 11 8 14 15 8 15 -7
0 -14 0 -17 0 -3 0 -14 9 -25 20 -12 12 -25 18 -30 15 -6 -4 -10 1 -10 9 0 17
-29 56 -42 56 -4 0 -9 -4 -12 -9z m48 -66 c7 -18 2 -19 -24 -2 -17 10 -22 9
-30 -3 -5 -8 -10 -10 -10 -4 0 27 54 35 64 9z m66 -105 c0 -13 -20 -13 -40 0
-12 8 -9 10 13 10 15 0 27 -4 27 -10z m60 0 c0 -5 -10 -10 -22 -10 -19 0 -20
2 -8 10 19 13 30 13 30 0z"/>
<path d="M2880 460 c0 -5 5 -10 10 -10 6 0 10 5 10 10 0 6 -4 10 -10 10 -5 0
-10 -4 -10 -10z"/>
<path d="M2465 430 c3 -5 8 -10 11 -10 2 0 4 5 4 10 0 6 -5 10 -11 10 -5 0 -7
-4 -4 -10z"/>
<path d="M2977 410 c3 -11 9 -17 15 -14 5 3 4 12 -3 20 -16 19 -18 18 -12 -6z"/>
<path d="M2535 390 c3 -5 17 -10 31 -10 14 0 22 4 19 10 -3 6 -17 10 -31 10
-14 0 -22 -4 -19 -10z"/>
<path d="M2450 380 c0 -5 4 -10 9 -10 6 0 13 5 16 10 3 6 -1 10 -9 10 -9 0
-16 -4 -16 -10z"/>
<path d="M2810 371 c0 -5 5 -13 10 -16 6 -3 10 -2 10 4 0 5 -4 13 -10 16 -5 3
-10 2 -10 -4z"/>
<path d="M2590 354 c0 -8 5 -12 10 -9 6 4 8 11 5 16 -9 14 -15 11 -15 -7z"/>
<path d="M2468 343 c7 -3 16 -2 19 1 4 3 -2 6 -13 5 -11 0 -14 -3 -6 -6z"/>
<path d="M2508 343 c7 -3 16 -2 19 1 4 3 -2 6 -13 5 -11 0 -14 -3 -6 -6z"/>
<path d="M2767 339 c-9 -6 -21 -8 -26 -5 -5 3 -14 -1 -21 -9 -10 -12 -8 -16
11 -24 17 -6 27 -5 34 4 6 7 19 14 29 16 16 3 17 6 5 16 -10 8 -20 8 -32 2z"/>
<path d="M2609 308 c-1 -13 -1 -26 0 -30 0 -5 -3 -8 -8 -8 -6 0 -9 -9 -8 -21
1 -16 6 -19 27 -14 35 9 37 13 18 45 -16 28 -16 30 0 40 15 8 14 9 -5 10 -17
0 -23 -6 -24 -22z"/>
<path d="M2786 302 c-3 -4 4 -9 15 -9 23 -2 25 3 4 10 -8 4 -16 3 -19 -1z"/>
<path d="M3122 287 c-7 -16 -12 -52 -11 -80 l1 -52 14 55 c8 30 13 66 11 80
l-3 25 -12 -28z"/>
<path d="M2545 290 c-8 -13 15 -24 27 -12 6 6 4 11 -6 15 -8 3 -18 2 -21 -3z"/>
<path d="M2809 278 c-7 -24 -5 -38 6 -38 14 0 27 25 18 34 -6 6 -22 8 -24 4z"/>
<path d="M2888 263 c6 -2 18 -2 25 0 6 3 1 5 -13 5 -14 0 -19 -2 -12 -5z"/>
<path d="M3044 164 c3 -9 6 -17 6 -19 0 -2 9 -1 20 2 16 4 17 7 5 19 -19 19
-39 18 -31 -2z"/>
<path d="M2670 146 c0 -8 5 -18 10 -21 6 -3 10 1 10 9 0 8 -4 18 -10 21 -5 3
-10 -1 -10 -9z"/>
<path d="M3071 126 c-7 -8 -11 -25 -10 -38 6 -61 -17 -78 -52 -37 -18 21 -61
28 -91 15 -32 -14 -19 -25 18 -14 20 5 38 7 42 4 3 -3 0 -6 -6 -6 -7 0 -12 -4
-12 -10 0 -5 9 -10 21 -10 11 0 27 -7 35 -15 9 -9 34 -15 60 -15 41 0 44 2 45
28 1 26 1 26 8 3 6 -21 7 -19 17 18 10 38 0 59 -12 26 -10 -25 -21 -17 -28 20
-8 40 -19 50 -35 31z"/>
<path d="M2976 113 c-11 -11 -6 -23 9 -23 8 0 15 4 15 9 0 13 -16 22 -24 14z"/>
<path d="M2686 102 c-6 -11 7 -89 18 -99 14 -15 15 8 3 57 -8 29 -17 48 -21
42z"/>
<path d="M2848 103 c6 -2 18 -2 25 0 6 3 1 5 -13 5 -14 0 -19 -2 -12 -5z"/>
<path d="M2800 60 c0 -5 5 -10 11 -10 5 0 7 5 4 10 -3 6 -8 10 -11 10 -2 0 -4
-4 -4 -10z"/>
<path d="M1711 24 c0 -11 3 -14 6 -6 3 7 2 16 -1 19 -3 4 -6 -2 -5 -13z"/>
<path d="M2876 31 c-4 -7 -5 -15 -2 -18 9 -9 19 4 14 18 -4 11 -6 11 -12 0z"/>
<path d="M2920 30 c0 -5 5 -10 10 -10 6 0 10 5 10 10 0 6 -4 10 -10 10 -5 0
-10 -4 -10 -10z"/>
<path d="M2816 16 c3 -9 11 -16 16 -16 13 0 5 23 -10 28 -7 2 -10 -2 -6 -12z"/>
</g>
</svg>
